<?xml version="1.0" encoding="utf-8"?>
<!-- Generator: Adobe Illustrator 24.2.3, SVG Export Plug-In . SVG Version: 6.00 Build 0)  -->
<svg version="1.1"
	 id="svg837" inkscape:version="1.0 (4035a4f, 2020-05-01)" sodipodi:docname="logo-facebook.svg" xmlns:cc="http://creativecommons.org/ns#" xmlns:dc="http://purl.org/dc/elements/1.1/" xmlns:inkscape="http://www.inkscape.org/namespaces/inkscape" xmlns:rdf="http://www.w3.org/1999/02/22-rdf-syntax-ns#" xmlns:sodipodi="http://sodipodi.sourceforge.net/DTD/sodipodi-0.dtd" xmlns:svg="http://www.w3.org/2000/svg"
	 xmlns="http://www.w3.org/2000/svg" xmlns:xlink="http://www.w3.org/1999/xlink" x="0px" y="0px" viewBox="0 0 512 512"
	 style="enable-background:new 0 0 512 512;" xml:space="preserve">
<style type="text/css">
	.st0{fill:#4F7DF3;stroke:#FFFFFF;}
	.st1{fill-rule:evenodd;clip-rule:evenodd;fill:#FFFFFF;stroke:#FFFFFF;}
</style>
<sodipodi:namedview  bordercolor="#666666" borderopacity="1" gridtolerance="10" guidetolerance="10" id="namedview839" inkscape:current-layer="svg837" inkscape:cx="188.59487" inkscape:cy="256.56709" inkscape:document-rotation="0" inkscape:pageopacity="0" inkscape:pageshadow="2" inkscape:window-height="1155" inkscape:window-maximized="1" inkscape:window-width="1920" inkscape:window-x="0" inkscape:window-y="23" inkscape:zoom="1.5615284" objecttolerance="10" pagecolor="#ffffff" showgrid="false">
	</sodipodi:namedview>
<ellipse id="circle836" class="st0" cx="254.6" cy="261" rx="179.9" ry="199"/>
<path id="path835" class="st1" d="M486.1,247.4c0-123.7-100.3-224-224-224s-224,100.3-224,224c0,111.8,81.9,204.5,189,221.3V312.2
	h-56.9v-64.8h56.9V198c0-56.1,33.4-87.2,84.6-87.2c24.5,0,50.1,4.4,50.1,4.4v55.1h-28.3c-27.8,0-36.5,17.3-36.5,35v42h62.1
	l-9.9,64.8H297v156.5C404.2,451.9,486.1,359.3,486.1,247.4L486.1,247.4z"/>
</svg>
